<?xml version="1.0" encoding="UTF-8" standalone="no"?>
<!-- Created with Inkscape (http://www.inkscape.org/) -->

<svg
   width="80mm"
   height="50mm"
   viewBox="0 0 80 50"
   version="1.1"
   id="svg1"
   inkscape:version="1.3.2 (091e20e, 2023-11-25, custom)"
   sodipodi:docname="fig_manifod_mds.svg"
   inkscape:export-filename="fig_manifod_mds.png"
   inkscape:export-xdpi="200"
   inkscape:export-ydpi="200"
   xmlns:inkscape="http://www.inkscape.org/namespaces/inkscape"
   xmlns:sodipodi="http://sodipodi.sourceforge.net/DTD/sodipodi-0.dtd"
   xmlns:xlink="http://www.w3.org/1999/xlink"
   xmlns="http://www.w3.org/2000/svg"
   xmlns:svg="http://www.w3.org/2000/svg">
  <sodipodi:namedview
     id="namedview1"
     pagecolor="#505050"
     bordercolor="#eeeeee"
     borderopacity="1"
     inkscape:showpageshadow="0"
     inkscape:pageopacity="0"
     inkscape:pagecheckerboard="0"
     inkscape:deskcolor="#505050"
     inkscape:document-units="mm"
     inkscape:zoom="3.666182"
     inkscape:cx="155.61148"
     inkscape:cy="82.78367"
     inkscape:window-width="1977"
     inkscape:window-height="1133"
     inkscape:window-x="1743"
     inkscape:window-y="309"
     inkscape:window-maximized="0"
     inkscape:current-layer="layer1"
     inkscape:export-bgcolor="#ffffffff" />
  <defs
     id="defs1">
    <linearGradient
       id="linearGradient5"
       inkscape:collect="always">
      <stop
         style="stop-color:#df69c0;stop-opacity:1;"
         offset="0"
         id="stop5" />
      <stop
         style="stop-color:#3f36ee;stop-opacity:0;"
         offset="1"
         id="stop6" />
    </linearGradient>
    <marker
       style="overflow:visible"
       id="ArrowTriangleStylized"
       refX="0"
       refY="0"
       orient="auto-start-reverse"
       inkscape:stockid="Stylized triangle arrow"
       markerWidth="1"
       markerHeight="1"
       viewBox="0 0 1 1"
       inkscape:isstock="true"
       inkscape:collect="always"
       preserveAspectRatio="xMidYMid">
      <path
         transform="scale(0.5)"
         style="fill:context-stroke;fill-rule:evenodd;stroke:context-stroke;stroke-width:1pt"
         d="m 6,0 c -3,1 -7,3 -9,5 0,0 0,-4 2,-5 -2,-1 -2,-5 -2,-5 2,2 6,4 9,5 z"
         id="path5" />
    </marker>
    <marker
       style="overflow:visible"
       id="ArrowTriangleStylized-5"
       refX="0"
       refY="0"
       orient="auto-start-reverse"
       inkscape:stockid="Stylized triangle arrow"
       markerWidth="1"
       markerHeight="1"
       viewBox="0 0 1 1"
       inkscape:isstock="true"
       inkscape:collect="always"
       preserveAspectRatio="xMidYMid">
      <path
         transform="scale(0.5)"
         style="fill:context-stroke;fill-rule:evenodd;stroke:context-stroke;stroke-width:1pt"
         d="m 6,0 c -3,1 -7,3 -9,5 0,0 0,-4 2,-5 -2,-1 -2,-5 -2,-5 2,2 6,4 9,5 z"
         id="path5-6" />
    </marker>
    <marker
       style="overflow:visible"
       id="ArrowTriangleStylized-9"
       refX="0"
       refY="0"
       orient="auto-start-reverse"
       inkscape:stockid="Stylized triangle arrow"
       markerWidth="1"
       markerHeight="1"
       viewBox="0 0 1 1"
       inkscape:isstock="true"
       inkscape:collect="always"
       preserveAspectRatio="xMidYMid">
      <path
         transform="scale(0.5)"
         style="fill:context-stroke;fill-rule:evenodd;stroke:context-stroke;stroke-width:1pt"
         d="m 6,0 c -3,1 -7,3 -9,5 0,0 0,-4 2,-5 -2,-1 -2,-5 -2,-5 2,2 6,4 9,5 z"
         id="path5-5" />
    </marker>
    <marker
       style="overflow:visible"
       id="ArrowTriangleStylized-1"
       refX="0"
       refY="0"
       orient="auto-start-reverse"
       inkscape:stockid="Stylized triangle arrow"
       markerWidth="1"
       markerHeight="1"
       viewBox="0 0 1 1"
       inkscape:isstock="true"
       inkscape:collect="always"
       preserveAspectRatio="xMidYMid">
      <path
         transform="scale(0.5)"
         style="fill:context-stroke;fill-rule:evenodd;stroke:context-stroke;stroke-width:1pt"
         d="m 6,0 c -3,1 -7,3 -9,5 0,0 0,-4 2,-5 -2,-1 -2,-5 -2,-5 2,2 6,4 9,5 z"
         id="path5-1" />
    </marker>
    <linearGradient
       inkscape:collect="always"
       xlink:href="#linearGradient5"
       id="linearGradient6"
       x1="9.6705964"
       y1="23.635227"
       x2="46.837441"
       y2="23.635227"
       gradientUnits="userSpaceOnUse"
       gradientTransform="matrix(1.4045369,0,0,1.4077922,-0.03929025,-7.6794924)" />
  </defs>
  <g
     inkscape:label="Layer 1"
     inkscape:groupmode="layer"
     id="layer1">
    <g
       id="g19"
       transform="translate(1.6604165,2.5555554)">
      <path
         style="fill:url(#linearGradient6);stroke-width:0.606058;stroke-opacity:0.996466"
         d="m 13.543419,27.87996 c 0,0 6.476054,-10.34446 11.454076,-13.512591 7.827109,-4.9813576 14.697706,-5.1815217 14.697706,-5.1815217 l 26.050421,8.1278757 c 0,0 -6.650832,2.792693 -14.190893,7.416686 C 45.039542,28.725892 36.45157,42.002144 36.45157,42.002144 Z"
         id="path1"
         sodipodi:nodetypes="csccscc" />
      <path
         style="fill:#999999;fill-opacity:0.717557;stroke-width:0.606058;stroke-opacity:0.996466"
         d="M 28.139763,2.8867451 12.12433,13.960974 41.418381,28.997543 56.926997,15.586549 Z"
         id="path2" />
      <ellipse
         style="fill:#ff0000;fill-opacity:0.717557;stroke-width:0.366824;stroke-opacity:0.996466"
         id="path3"
         cx="26.999422"
         cy="18.202709"
         rx="0.58284014"
         ry="0.58419102" />
      <ellipse
         style="fill:#ff0000;fill-opacity:0.717557;stroke-width:0.366824;stroke-opacity:0.996466"
         id="path3-9"
         cx="34.428669"
         cy="12.170646"
         rx="0.58284014"
         ry="0.58419102" />
      <ellipse
         style="fill:#ff0000;fill-opacity:0.717557;stroke-width:0.366824;stroke-opacity:0.996466"
         id="path3-2"
         cx="46.2192"
         cy="15.794862"
         rx="0.58284014"
         ry="0.58419102" />
      <ellipse
         style="fill:#ff0000;fill-opacity:0.717557;stroke-width:0.366824;stroke-opacity:0.996466"
         id="path3-1"
         cx="40.205063"
         cy="24.345278"
         rx="0.58284014"
         ry="0.58419102" />
      <ellipse
         style="fill:#000080;fill-opacity:0.717557;stroke-width:0.366824;stroke-opacity:0.996466"
         id="path3-3"
         cx="37.907688"
         cy="17.487383"
         rx="0.58284014"
         ry="0.58419102" />
      <path
         style="fill:#000000;fill-opacity:0.989822;stroke:#000000;stroke-width:0.140616;stroke-dasharray:none;stroke-opacity:1;marker-end:url(#ArrowTriangleStylized)"
         d="m 36.979252,17.570468 -8.075447,0.658509"
         id="path4" />
      <path
         style="fill:#000000;fill-opacity:0.989822;stroke:#000000;stroke-width:0.140616;stroke-dasharray:none;stroke-opacity:1;marker-end:url(#ArrowTriangleStylized-5)"
         d="M 37.651531,16.87834 35.156832,13.210124"
         id="path4-9" />
      <path
         style="fill:#000000;fill-opacity:0.989822;stroke:#000000;stroke-width:0.140616;stroke-dasharray:none;stroke-opacity:1;marker-end:url(#ArrowTriangleStylized-9)"
         d="m 38.51146,17.149233 6.147412,-1.011456"
         id="path4-1" />
      <path
         style="fill:#000000;fill-opacity:0.989822;stroke:#000000;stroke-width:0.140616;stroke-dasharray:none;stroke-opacity:1;marker-end:url(#ArrowTriangleStylized-1)"
         d="m 38.229357,18.23996 1.6034,4.526701"
         id="path4-6" />
      <g
         inkscape:label=""
         transform="translate(10.933544,3.2836934)"
         id="g11">
        <g
           fill="#000000"
           fill-opacity="1"
           id="g6"
           transform="matrix(0.352778,0,0,0.352778,-0.824353,-0.706261)">
          <g
             id="use5"
             transform="translate(1.993,12.752)">
            <path
               d="M 5.984375,-8.75 C 6.0625,-9.09375 6.09375,-9.21875 6.3125,-9.28125 6.421875,-9.3125 6.90625,-9.3125 7.203125,-9.3125 c 1.4375,0 2.109375,0.0625 2.109375,1.171875 0,0.21875 -0.0625,0.765625 -0.140625,1.296875 L 9.15625,-6.671875 c 0,0.0625 0.046875,0.140625 0.140625,0.140625 0.140625,0 0.140625,-0.0625 0.1875,-0.296875 l 0.40625,-2.53125 C 9.921875,-9.5 9.921875,-9.53125 9.921875,-9.5625 c 0,-0.15625 -0.078125,-0.15625 -0.375,-0.15625 h -7.84375 c -0.328125,0 -0.34375,0.015625 -0.421875,0.265625 L 0.40625,-6.875 c -0.015625,0.03125 -0.0625,0.1875 -0.0625,0.203125 0,0.078125 0.0625,0.140625 0.140625,0.140625 0.125,0 0.140625,-0.046875 0.203125,-0.234375 C 1.296875,-8.5 1.59375,-9.3125 3.5,-9.3125 h 0.953125 c 0.359375,0 0.5,0 0.5,0.15625 0,0.046875 0,0.078125 -0.078125,0.328125 L 2.953125,-1.125 c -0.140625,0.5625 -0.171875,0.703125 -1.6875,0.703125 -0.359375,0 -0.46875,0 -0.46875,0.28125 C 0.796875,0 0.96875,0 1.03125,0 1.390625,0 1.765625,-0.03125 2.125,-0.03125 H 4.359375 C 4.71875,-0.03125 5.109375,0 5.46875,0 5.625,0 5.765625,0 5.765625,-0.265625 c 0,-0.15625 -0.09375,-0.15625 -0.46875,-0.15625 C 4,-0.421875 4,-0.546875 4,-0.765625 4,-0.78125 4,-0.875 4.0625,-1.109375 Z m 0,0"
               id="path10" />
          </g>
        </g>
        <g
           fill="#000000"
           fill-opacity="1"
           id="g7"
           transform="matrix(0.352778,0,0,0.352778,-0.824353,-0.706261)">
          <g
             id="use6"
             transform="translate(10.226,14.904)">
            <path
               d="M 0.453125,1.21875 C 0.375,1.5625 0.34375,1.625 -0.09375,1.625 c -0.109375,0 -0.21875,0 -0.21875,0.1875 0,0.078125 0.046875,0.125 0.125,0.125 0.265625,0 0.5625,-0.03125 0.828125,-0.03125 0.34375,0 0.671875,0.03125 1,0.03125 0.046875,0 0.171875,0 0.171875,-0.203125 C 1.8125,1.625 1.71875,1.625 1.578125,1.625 c -0.5,0 -0.5,-0.0625 -0.5,-0.15625 0,-0.125 0.421875,-1.75 0.484375,-2 0.125,0.296875 0.40625,0.640625 0.921875,0.640625 1.15625,0 2.40625,-1.453125 2.40625,-2.921875 0,-0.9375 -0.578125,-1.59375 -1.328125,-1.59375 -0.5,0 -0.984375,0.359375 -1.3125,0.75 -0.09375,-0.546875 -0.53125,-0.75 -0.890625,-0.75 -0.46875,0 -0.65625,0.390625 -0.734375,0.5625 C 0.4375,-3.5 0.3125,-2.90625 0.3125,-2.875 c 0,0.109375 0.09375,0.109375 0.109375,0.109375 0.109375,0 0.109375,-0.015625 0.171875,-0.234375 0.171875,-0.703125 0.375,-1.1875 0.734375,-1.1875 0.171875,0 0.3125,0.078125 0.3125,0.453125 0,0.234375 -0.03125,0.34375 -0.078125,0.515625 z m 1.75,-4.328125 C 2.265625,-3.375 2.546875,-3.65625 2.71875,-3.8125 c 0.359375,-0.296875 0.640625,-0.375 0.8125,-0.375 0.390625,0 0.640625,0.34375 0.640625,0.9375 0,0.59375 -0.328125,1.734375 -0.515625,2.109375 -0.34375,0.703125 -0.8125,1.03125 -1.1875,1.03125 C 1.8125,-0.109375 1.6875,-0.9375 1.6875,-1 c 0,-0.015625 0,-0.03125 0.03125,-0.15625 z m 0,0"
               id="path11" />
          </g>
        </g>
        <g
           fill="#000000"
           fill-opacity="1"
           id="g8"
           transform="matrix(0.352778,0,0,0.352778,-0.824353,-0.706261)">
          <g
             id="use7"
             transform="translate(15.736,12.752)">
            <path
               d="m 4.65625,3.484375 c 0,-0.046875 0,-0.078125 -0.234375,-0.3125 -1.4375,-1.453125 -2.234375,-3.8125 -2.234375,-6.75 0,-2.78125 0.671875,-5.171875 2.328125,-6.859375 0.140625,-0.140625 0.140625,-0.15625 0.140625,-0.203125 0,-0.09375 -0.0625,-0.109375 -0.125,-0.109375 -0.1875,0 -1.359375,1.03125 -2.0625,2.4375 -0.734375,1.4375 -1.0625,2.984375 -1.0625,4.734375 0,1.28125 0.203125,2.984375 0.953125,4.53125 0.84375,1.71875 2.015625,2.640625 2.171875,2.640625 0.0625,0 0.125,-0.015625 0.125,-0.109375 z m 0,0"
               id="path12" />
          </g>
        </g>
        <g
           fill="#000000"
           fill-opacity="1"
           id="g9"
           transform="matrix(0.352778,0,0,0.352778,-0.824353,-0.706261)">
          <g
             id="use8"
             transform="translate(21.198999,12.752)">
            <path
               d="m 13.03125,-8.75 c 0.125,-0.484375 0.15625,-0.625 1.171875,-0.625 0.265625,0 0.40625,0 0.40625,-0.28125 0,-0.140625 -0.109375,-0.140625 -0.375,-0.140625 H 12.5 c -0.34375,0 -0.359375,0.015625 -0.515625,0.25 l -5.25,8.265625 -1.0625,-8.203125 c -0.046875,-0.3125 -0.0625,-0.3125 -0.4375,-0.3125 h -1.78125 c -0.265625,0 -0.390625,0 -0.390625,0.265625 0,0.15625 0.125,0.15625 0.34375,0.15625 0.875,0 0.875,0.109375 0.875,0.265625 0,0.03125 0,0.109375 -0.0625,0.328125 L 2.375,-1.46875 c -0.171875,0.6875 -0.5,1.015625 -1.453125,1.046875 -0.046875,0 -0.21875,0.015625 -0.21875,0.265625 C 0.703125,0 0.828125,0 0.890625,0 1.171875,0 1.90625,-0.03125 2.1875,-0.03125 h 0.703125 c 0.1875,0 0.4375,0.03125 0.640625,0.03125 0.09375,0 0.25,0 0.25,-0.265625 0,-0.140625 -0.140625,-0.15625 -0.203125,-0.15625 C 3.109375,-0.4375 2.65625,-0.515625 2.65625,-1.03125 c 0,-0.140625 0,-0.15625 0.0625,-0.359375 l 1.96875,-7.90625 h 0.015625 l 1.1875,8.90625 C 5.9375,-0.046875 5.953125,0 6.078125,0 6.234375,0 6.3125,-0.109375 6.390625,-0.25 L 12.15625,-9.359375 10.078125,-1.0625 c -0.125,0.5 -0.15625,0.640625 -1.15625,0.640625 -0.265625,0 -0.421875,0 -0.421875,0.265625 C 8.5,0 8.640625,0 8.71875,0 8.96875,0 9.25,-0.03125 9.5,-0.03125 h 1.6875 C 11.4375,-0.03125 11.734375,0 11.984375,0 12.09375,0 12.25,0 12.25,-0.265625 c 0,-0.15625 -0.125,-0.15625 -0.34375,-0.15625 -0.875,0 -0.875,-0.109375 -0.875,-0.25 0,-0.015625 0,-0.109375 0.03125,-0.234375 z m 0,0"
               id="path13" />
          </g>
        </g>
        <g
           fill="#000000"
           fill-opacity="1"
           id="g10"
           transform="matrix(0.352778,0,0,0.352778,-0.824353,-0.706261)">
          <g
             id="use9"
             transform="translate(36.286999,12.752)">
            <path
               d="M 4.046875,-3.578125 C 4.046875,-4.65625 3.90625,-6.4375 3.09375,-8.109375 2.25,-9.828125 1.078125,-10.75 0.921875,-10.75 c -0.0625,0 -0.140625,0.01563 -0.140625,0.109375 0,0.04687 0,0.0625 0.25,0.3125 1.4375,1.453125 2.234375,3.8125 2.234375,6.75 0,2.78125 -0.671875,5.171875 -2.328125,6.859375 -0.15625,0.125 -0.15625,0.15625 -0.15625,0.203125 0,0.09375 0.078125,0.109375 0.140625,0.109375 0.1875,0 1.359375,-1.03125 2.0625,-2.4375 0.734375,-1.453125 1.0625,-3 1.0625,-4.734375 z m 0,0"
               id="path14" />
          </g>
        </g>
      </g>
      <g
         inkscape:label=""
         transform="translate(34.31618,18.439106)"
         id="g15">
        <g
           fill="#000000"
           fill-opacity="1"
           id="g2"
           transform="matrix(0.352778,0,0,0.352778,-0.548746,-0.64942)">
          <g
             id="use1"
             transform="translate(1.993,8.1689997)">
            <path
               d="M 0.609375,1.828125 C 0.515625,2.25 0.453125,2.359375 -0.125,2.359375 c -0.171875,0 -0.3125,0 -0.3125,0.28125 0,0.03125 0,0.140625 0.171875,0.140625 0.171875,0 0.375,-0.03125 0.5625,-0.03125 h 0.625 c 0.296875,0 1.03125,0.03125 1.328125,0.03125 0.09375,0 0.265625,0 0.265625,-0.25 0,-0.171875 -0.109375,-0.171875 -0.34375,-0.171875 C 1.5,2.359375 1.46875,2.265625 1.46875,2.15625 c 0,-0.171875 0.640625,-2.640625 0.71875,-2.96875 0.171875,0.390625 0.546875,0.953125 1.296875,0.953125 1.625,0 3.375,-2.109375 3.375,-4.21875 0,-1.3125 -0.75,-2.25 -1.828125,-2.25 -0.921875,0 -1.6875,0.890625 -1.84375,1.09375 -0.125,-0.71875 -0.671875,-1.09375 -1.25,-1.09375 -0.421875,0 -0.75,0.203125 -1.015625,0.75 C 0.65625,-5.0625 0.453125,-4.1875 0.453125,-4.125 c 0,0.046875 0.0625,0.125 0.15625,0.125 0.125,0 0.140625,-0.015625 0.21875,-0.34375 0.21875,-0.84375 0.484375,-1.6875 1.0625,-1.6875 0.328125,0 0.453125,0.21875 0.453125,0.65625 0,0.34375 -0.046875,0.484375 -0.109375,0.734375 z M 3.09375,-4.46875 C 3.203125,-4.875 3.59375,-5.296875 3.828125,-5.5 3.984375,-5.640625 4.453125,-6.03125 5,-6.03125 c 0.640625,0 0.921875,0.625 0.921875,1.375 0,0.6875 -0.40625,2.296875 -0.765625,3.046875 -0.34375,0.78125 -1.015625,1.46875 -1.671875,1.46875 -0.96875,0 -1.125,-1.234375 -1.125,-1.296875 0,-0.046875 0.015625,-0.15625 0.03125,-0.21875 z m 0,0"
               id="path15" />
          </g>
        </g>
      </g>
      <g
         inkscape:label=""
         transform="translate(16.634866,25.222957)"
         id="g18">
        <g
           fill="#000000"
           fill-opacity="1"
           id="g17"
           transform="matrix(0.352778,0,0,0.352778,-0.951133,-0.704894)">
          <g
             id="g16"
             transform="translate(1.993,11.795)">
            <path
               d="m 13.03125,-8.75 c 0.125,-0.484375 0.15625,-0.625 1.171875,-0.625 0.265625,0 0.40625,0 0.40625,-0.28125 0,-0.140625 -0.109375,-0.140625 -0.375,-0.140625 H 12.5 c -0.34375,0 -0.359375,0.015625 -0.515625,0.25 l -5.25,8.265625 -1.0625,-8.203125 c -0.046875,-0.3125 -0.0625,-0.3125 -0.4375,-0.3125 h -1.78125 c -0.265625,0 -0.390625,0 -0.390625,0.265625 0,0.15625 0.125,0.15625 0.34375,0.15625 0.875,0 0.875,0.109375 0.875,0.265625 0,0.03125 0,0.109375 -0.0625,0.328125 L 2.375,-1.46875 c -0.171875,0.6875 -0.5,1.015625 -1.453125,1.046875 -0.046875,0 -0.21875,0.015625 -0.21875,0.265625 C 0.703125,0 0.828125,0 0.890625,0 1.171875,0 1.90625,-0.03125 2.1875,-0.03125 h 0.703125 c 0.1875,0 0.4375,0.03125 0.640625,0.03125 0.09375,0 0.25,0 0.25,-0.265625 0,-0.140625 -0.140625,-0.15625 -0.203125,-0.15625 C 3.109375,-0.4375 2.65625,-0.515625 2.65625,-1.03125 c 0,-0.140625 0,-0.15625 0.0625,-0.359375 l 1.96875,-7.90625 h 0.015625 l 1.1875,8.90625 C 5.9375,-0.046875 5.953125,0 6.078125,0 6.234375,0 6.3125,-0.109375 6.390625,-0.25 L 12.15625,-9.359375 10.078125,-1.0625 c -0.125,0.5 -0.15625,0.640625 -1.15625,0.640625 -0.265625,0 -0.421875,0 -0.421875,0.265625 C 8.5,0 8.640625,0 8.71875,0 8.96875,0 9.25,-0.03125 9.5,-0.03125 h 1.6875 C 11.4375,-0.03125 11.734375,0 11.984375,0 12.09375,0 12.25,0 12.25,-0.265625 c 0,-0.15625 -0.125,-0.15625 -0.34375,-0.15625 -0.875,0 -0.875,-0.109375 -0.875,-0.25 0,-0.015625 0,-0.109375 0.03125,-0.234375 z m 0,0"
               id="path16" />
          </g>
        </g>
      </g>
    </g>
  </g>
</svg>
