<?xml version="1.0" encoding="UTF-8" standalone="no"?>
<svg
   xmlns:dc="http://purl.org/dc/elements/1.1/"
   xmlns:cc="http://creativecommons.org/ns#"
   xmlns:rdf="http://www.w3.org/1999/02/22-rdf-syntax-ns#"
   xmlns:svg="http://www.w3.org/2000/svg"
   xmlns="http://www.w3.org/2000/svg"
   xmlns:sodipodi="http://sodipodi.sourceforge.net/DTD/sodipodi-0.dtd"
   xmlns:inkscape="http://www.inkscape.org/namespaces/inkscape"
   width="210mm"
   height="297mm"
   viewBox="0 0 210 297"
   version="1.1"
   id="svg8"
   inkscape:version="1.0.2 (e86c8708, 2021-01-15)"
   sodipodi:docname="fig_lda.svg">
  <defs
     id="defs2">
    <marker
       style="overflow:visible"
       id="marker2875"
       refX="0.0"
       refY="0.0"
       orient="auto"
       inkscape:stockid="Arrow1Mstart"
       inkscape:isstock="true">
      <path
         transform="scale(0.4) translate(10,0)"
         style="fill-rule:evenodd;stroke:#000000;stroke-width:1pt;stroke-opacity:1;fill:#000000;fill-opacity:1"
         d="M 0.0,0.0 L 5.0,-5.0 L -12.5,0.0 L 5.0,5.0 L 0.0,0.0 z "
         id="path2873" />
    </marker>
    <marker
       style="overflow:visible"
       id="marker2568"
       refX="0.0"
       refY="0.0"
       orient="auto"
       inkscape:stockid="Arrow1Mstart"
       inkscape:isstock="true"
       inkscape:collect="always">
      <path
         transform="scale(0.4) translate(10,0)"
         style="fill-rule:evenodd;stroke:#000000;stroke-width:1pt;stroke-opacity:1;fill:#000000;fill-opacity:1"
         d="M 0.0,0.0 L 5.0,-5.0 L -12.5,0.0 L 5.0,5.0 L 0.0,0.0 z "
         id="path2566" />
    </marker>
    <marker
       style="overflow:visible"
       id="marker2429"
       refX="0.0"
       refY="0.0"
       orient="auto"
       inkscape:stockid="StopL"
       inkscape:isstock="true">
      <path
         transform="scale(0.8)"
         style="fill:none;fill-opacity:0.75;fill-rule:evenodd;stroke:#000000;stroke-width:1pt;stroke-opacity:1"
         d="M 0.0,5.65 L 0.0,-5.65"
         id="path2427" />
    </marker>
    <marker
       style="overflow:visible;"
       id="marker2302"
       refX="0.0"
       refY="0.0"
       orient="auto"
       inkscape:stockid="Arrow1Mend"
       inkscape:isstock="true">
      <path
         transform="scale(0.4) rotate(180) translate(10,0)"
         style="fill-rule:evenodd;stroke:#000000;stroke-width:1pt;stroke-opacity:1;fill:#000000;fill-opacity:1"
         d="M 0.0,0.0 L 5.0,-5.0 L -12.5,0.0 L 5.0,5.0 L 0.0,0.0 z "
         id="path2300" />
    </marker>
    <marker
       style="overflow:visible;"
       id="Arrow1Mend"
       refX="0.0"
       refY="0.0"
       orient="auto"
       inkscape:stockid="Arrow1Mend"
       inkscape:isstock="true">
      <path
         transform="scale(0.4) rotate(180) translate(10,0)"
         style="fill-rule:evenodd;stroke:#000000;stroke-width:1pt;stroke-opacity:1;fill:#000000;fill-opacity:1"
         d="M 0.0,0.0 L 5.0,-5.0 L -12.5,0.0 L 5.0,5.0 L 0.0,0.0 z "
         id="path971" />
    </marker>
    <marker
       style="overflow:visible"
       id="StopL"
       refX="0.0"
       refY="0.0"
       orient="auto"
       inkscape:stockid="StopL"
       inkscape:isstock="true"
       inkscape:collect="always">
      <path
         transform="scale(0.8)"
         style="fill:none;fill-opacity:0.75;fill-rule:evenodd;stroke:#000000;stroke-width:1pt;stroke-opacity:1"
         d="M 0.0,5.65 L 0.0,-5.65"
         id="path1131" />
    </marker>
    <marker
       style="overflow:visible"
       id="DotL"
       refX="0.0"
       refY="0.0"
       orient="auto"
       inkscape:stockid="DotL"
       inkscape:isstock="true">
      <path
         transform="scale(0.8) translate(7.4, 1)"
         style="fill-rule:evenodd;stroke:#000000;stroke-width:1pt;stroke-opacity:1;fill:#000000;fill-opacity:1"
         d="M -2.5,-1.0 C -2.5,1.7600000 -4.7400000,4.0 -7.5,4.0 C -10.260000,4.0 -12.5,1.7600000 -12.5,-1.0 C -12.5,-3.7600000 -10.260000,-6.0 -7.5,-6.0 C -4.7400000,-6.0 -2.5,-3.7600000 -2.5,-1.0 z "
         id="path1023" />
    </marker>
    <marker
       style="overflow:visible"
       id="EmptyDiamondSend"
       refX="0.0"
       refY="0.0"
       orient="auto"
       inkscape:stockid="EmptyDiamondSend"
       inkscape:isstock="true">
      <path
         transform="scale(0.2) translate(-6,0)"
         style="fill-rule:evenodd;fill:#ffffff;stroke:#000000;stroke-width:1pt;stroke-opacity:1"
         d="M 0,-7.0710768 L -7.0710894,0 L 0,7.0710589 L 7.0710462,0 L 0,-7.0710768 z "
         id="path1092" />
    </marker>
    <marker
       inkscape:stockid="DistanceStart"
       orient="auto"
       refY="0.0"
       refX="0.0"
       id="DistanceStart"
       style="overflow:visible"
       inkscape:isstock="true">
      <g
         id="g2300"
         style="stroke:#000000;stroke-opacity:1;fill:#000000;fill-opacity:1">
        <path
           id="path2306"
           d="M 0,0 L 2,0"
           style="fill:#000000;stroke:#000000;stroke-width:1.15;stroke-linecap:square;stroke-opacity:1;fill-opacity:1" />
        <path
           id="path2302"
           d="M 0,0 L 13,4 L 9,0 13,-4 L 0,0 z "
           style="fill:#000000;fill-rule:evenodd;stroke:#000000;stroke-opacity:1;fill-opacity:1" />
        <path
           id="path2304"
           d="M 0,-4 L 0,40"
           style="fill:#000000;stroke:#000000;stroke-width:1;stroke-linecap:square;stroke-opacity:1;fill-opacity:1" />
      </g>
    </marker>
    <marker
       style="overflow:visible"
       id="marker1292"
       refX="0.0"
       refY="0.0"
       orient="auto"
       inkscape:stockid="Arrow1Mstart"
       inkscape:isstock="true">
      <path
         transform="scale(0.4) translate(10,0)"
         style="fill-rule:evenodd;stroke:#000000;stroke-width:1pt;stroke-opacity:1;fill:#000000;fill-opacity:1"
         d="M 0.0,0.0 L 5.0,-5.0 L -12.5,0.0 L 5.0,5.0 L 0.0,0.0 z "
         id="path1290" />
    </marker>
    <marker
       style="overflow:visible"
       id="marker1252"
       refX="0.0"
       refY="0.0"
       orient="auto"
       inkscape:stockid="Arrow1Mstart"
       inkscape:isstock="true"
       inkscape:collect="always">
      <path
         transform="scale(0.4) translate(10,0)"
         style="fill-rule:evenodd;stroke:#000000;stroke-width:1pt;stroke-opacity:1;fill:#000000;fill-opacity:1"
         d="M 0.0,0.0 L 5.0,-5.0 L -12.5,0.0 L 5.0,5.0 L 0.0,0.0 z "
         id="path1250" />
    </marker>
    <marker
       style="overflow:visible"
       id="Arrow1Mstart"
       refX="0.0"
       refY="0.0"
       orient="auto"
       inkscape:stockid="Arrow1Mstart"
       inkscape:isstock="true"
       inkscape:collect="always">
      <path
         transform="scale(0.4) translate(10,0)"
         style="fill-rule:evenodd;stroke:#000000;stroke-width:1pt;stroke-opacity:1;fill:#000000;fill-opacity:1"
         d="M 0.0,0.0 L 5.0,-5.0 L -12.5,0.0 L 5.0,5.0 L 0.0,0.0 z "
         id="path968" />
    </marker>
    <marker
       style="overflow:visible"
       id="marker1292-9"
       refX="0"
       refY="0"
       orient="auto"
       inkscape:stockid="Arrow1Mstart"
       inkscape:isstock="true">
      <path
         transform="matrix(0.4,0,0,0.4,4,0)"
         style="fill:#000000;fill-opacity:1;fill-rule:evenodd;stroke:#000000;stroke-width:1pt;stroke-opacity:1"
         d="M 0,0 5,-5 -12.5,0 5,5 Z"
         id="path1290-0" />
    </marker>
    <marker
       style="overflow:visible"
       id="StopL-8"
       refX="0"
       refY="0"
       orient="auto"
       inkscape:stockid="StopL"
       inkscape:isstock="true">
      <path
         transform="scale(0.8)"
         style="fill:none;fill-opacity:0.75;fill-rule:evenodd;stroke:#000000;stroke-width:1pt;stroke-opacity:1"
         d="M 0,5.65 V -5.65"
         id="path1131-2" />
    </marker>
    <marker
       style="overflow:visible"
       id="StopL-8-6"
       refX="0"
       refY="0"
       orient="auto"
       inkscape:stockid="StopL"
       inkscape:isstock="true">
      <path
         transform="scale(0.8)"
         style="fill:none;fill-opacity:0.75;fill-rule:evenodd;stroke:#000000;stroke-width:1pt;stroke-opacity:1"
         d="M 0,5.65 V -5.65"
         id="path1131-2-1" />
    </marker>
    <marker
       style="overflow:visible"
       id="Arrow1Mend-6"
       refX="0"
       refY="0"
       orient="auto"
       inkscape:stockid="Arrow1Mend"
       inkscape:isstock="true">
      <path
         transform="matrix(-0.4,0,0,-0.4,-4,0)"
         style="fill:#000000;fill-opacity:1;fill-rule:evenodd;stroke:#000000;stroke-width:1pt;stroke-opacity:1"
         d="M 0,0 5,-5 -12.5,0 5,5 Z"
         id="path971-6" />
    </marker>
  </defs>
  <sodipodi:namedview
     id="base"
     pagecolor="#ffffff"
     bordercolor="#666666"
     borderopacity="1.0"
     inkscape:pageopacity="0.0"
     inkscape:pageshadow="2"
     inkscape:zoom="1.66"
     inkscape:cx="334.75544"
     inkscape:cy="319.14561"
     inkscape:document-units="mm"
     inkscape:current-layer="layer1"
     inkscape:document-rotation="0"
     showgrid="true"
     showguides="false"
     inkscape:snap-global="true"
     inkscape:window-width="1252"
     inkscape:window-height="855"
     inkscape:window-x="0"
     inkscape:window-y="23"
     inkscape:window-maximized="0">
    <inkscape:grid
       type="xygrid"
       id="grid10" />
  </sodipodi:namedview>
  <metadata
     id="metadata5">
    <rdf:RDF>
      <cc:Work
         rdf:about="">
        <dc:format>image/svg+xml</dc:format>
        <dc:type
           rdf:resource="http://purl.org/dc/dcmitype/StillImage" />
        <dc:title></dc:title>
      </cc:Work>
    </rdf:RDF>
  </metadata>
  <g
     inkscape:label="Layer 1"
     inkscape:groupmode="layer"
     id="layer1">
    <path
       style="fill:#ffd5d5;stroke:#000000;stroke-width:0.26458300000000001px;stroke-linecap:butt;stroke-linejoin:miter;stroke-opacity:1"
       d="m 37.041667,87.3125 c 0,0 11.130148,0.286645 15.874999,-2.645834 4.243923,-2.622889 8.730453,-5.951135 10.583333,-10.583334 2.645834,-6.614582 5.291668,-15.874999 5.291668,-15.874999 0,0 2.11177,-7.9375 5.291666,-7.9375 3.179896,0 5.291666,7.9375 5.291666,7.9375 0,0 2.359189,11.130149 5.291668,15.875 2.622889,4.243923 6.33941,7.960445 10.583333,10.583334 4.744851,2.932479 15.875,2.645833 15.875,2.645833 v 0"
       id="path25"
       sodipodi:nodetypes="csscscsscc" />
    <path
       style="fill:none;stroke:#000000;stroke-width:0.358828px;stroke-linecap:butt;stroke-linejoin:miter;stroke-opacity:1"
       d="M 37.041663,88.635417 H 173.30208 v 0"
       id="path31" />
    <path
       style="fill:#afdde9;stroke:#000000;stroke-width:0.26458300000000001px;stroke-linecap:butt;stroke-linejoin:miter;stroke-opacity:1"
       d="m 60.854167,87.3125 c 0,0 11.130148,0.28664 15.874999,-2.64583 4.243923,-2.62289 8.730453,-5.95114 10.583333,-10.58334 2.645834,-6.61458 5.291668,-15.875 5.291668,-15.875 0,0 2.11177,-7.937497 5.291666,-7.937497 3.179897,0 5.291667,7.937497 5.291667,7.937497 0,0 2.35919,11.13015 5.29167,15.875 2.62289,4.24393 6.33941,7.96045 10.58333,10.58334 4.74485,2.93248 15.875,2.64583 15.875,2.64583 v 0"
       id="path25-0"
       sodipodi:nodetypes="csscscsscc" />
    <path
       style="fill:#afe9dd;stroke:#000000;stroke-width:0.26458300000000001px;stroke-linecap:butt;stroke-linejoin:miter;stroke-opacity:1"
       d="m 97.895831,87.3125 c 0,0 11.130149,0.286645 15.874999,-2.645834 4.24392,-2.622889 8.73045,-5.951135 10.58333,-10.583334 2.64584,-6.614582 5.29167,-15.874999 5.29167,-15.874999 0,0 2.11177,-7.9375 5.29167,-7.9375 3.1799,0 5.29167,7.9375 5.29167,7.9375 0,0 2.35919,11.130149 5.29166,15.875 2.62289,4.243923 6.33941,7.960445 10.58334,10.583334 4.74485,2.932479 15.875,2.645833 15.875,2.645833 v 0"
       id="path25-9"
       sodipodi:nodetypes="csscscsscc" />
    <path
       style="fill:#d40000;stroke:#d60000;stroke-width:0.26458300000000001px;stroke-linecap:butt;stroke-linejoin:miter;stroke-opacity:1"
       d="m 74.083332,50.270833 v 38.364583 0"
       id="path65" />
    <path
       style="fill:#0000ff;stroke:#0000ff;stroke-width:0.26458300000000001px;stroke-linecap:butt;stroke-linejoin:miter;stroke-opacity:1"
       d="m 97.895833,50.270833 v 38.364583 0"
       id="path65-8" />
    <path
       style="fill:#0000ff;stroke:#008000;stroke-width:0.26458300000000001px;stroke-linecap:butt;stroke-linejoin:miter;stroke-opacity:1"
       d="m 135.30911,50.270833 v 38.364583 0"
       id="path65-8-5" />
    <ellipse
       style="fill:#ffffff;stroke:#000000;stroke-width:0.494691;stroke-linecap:square;stroke-dasharray:0.989383, 0.49469099999999999;stroke-opacity:1"
       id="path930"
       cx="116.00287"
       cy="88.721863"
       rx="0.80527186"
       ry="0.84415776" />
    <ellipse
       style="fill:#ffffff;stroke:#000000;stroke-width:0.494691;stroke-linecap:square;stroke-dasharray:0.989383, 0.494691;stroke-opacity:1"
       id="path930-5"
       cx="82.631996"
       cy="88.56295"
       rx="0.80527186"
       ry="0.84415776" />
    <path
       style="fill:none;stroke:#000000;stroke-width:0.265;stroke-linecap:butt;stroke-linejoin:miter;stroke-opacity:1;stroke-miterlimit:4;stroke-dasharray:none;marker-start:url(#Arrow1Mstart)"
       d="m 83.343749,89.958332 11.90625,15.874998"
       id="path952" />
    <path
       style="fill:none;stroke:#000000;stroke-width:0.26458300000000001px;stroke-linecap:butt;stroke-linejoin:miter;stroke-opacity:1;marker-start:url(#marker1252)"
       d="M 115.09375,89.958332 103.1875,105.83333"
       id="path954" />
    <text
       xml:space="preserve"
       style="font-size:4.23333px;line-height:1.25;font-family:sans-serif;text-align:center;letter-spacing:0px;text-anchor:middle;stroke-width:0.264583"
       x="100.06655"
       y="111.17902"
       id="text958"><tspan
         sodipodi:role="line"
         id="tspan956"
         x="100.06655"
         y="111.17902"
         style="text-align:center;text-anchor:middle;stroke-width:0.264583">Decision</tspan><tspan
         sodipodi:role="line"
         x="100.06655"
         y="116.47069"
         style="text-align:center;text-anchor:middle;stroke-width:0.264583"
         id="tspan960">Boundaries</tspan></text>
    <path
       style="fill:none;stroke:#000000;stroke-width:0.5;stroke-linecap:butt;stroke-linejoin:miter;stroke-opacity:1;stroke-miterlimit:4;stroke-dasharray:0.5,1;stroke-dashoffset:0;marker-start:url(#marker1292);marker-end:url(#StopL)"
       d="m 34.395833,92.604166 h 47.624999 v 0"
       id="path1278" />
    <text
       xml:space="preserve"
       style="font-size:4.23333px;line-height:1.25;font-family:sans-serif;letter-spacing:0px;stroke-width:0.264583"
       x="47.911896"
       y="99.747917"
       id="text1282"><tspan
         sodipodi:role="line"
         id="tspan1280"
         x="47.911896"
         y="99.747917"
         style="stroke-width:0.264583">Class 1</tspan></text>
    <path
       style="fill:none;stroke:#000000;stroke-width:0.50000001;stroke-linecap:butt;stroke-linejoin:miter;stroke-miterlimit:4;stroke-dasharray:0.50000001, 1.00000003000000004;stroke-dashoffset:0;stroke-opacity:1;marker-start:url(#StopL-8);marker-end:url(#Arrow1Mend);marker-mid:"
       d="m 116.41667,93.927083 h 47.625 v 0"
       id="path1278-4" />
    <text
       xml:space="preserve"
       style="font-size:4.23333px;line-height:1.25;font-family:sans-serif;letter-spacing:0px;stroke-width:0.264583"
       x="129.93272"
       y="101.07082"
       id="text1282-9"><tspan
         sodipodi:role="line"
         id="tspan1280-1"
         x="129.93272"
         y="101.07082"
         style="stroke-width:0.264583">Class 3</tspan></text>
    <path
       style="fill:none;stroke:#000000;stroke-width:0.489472;stroke-linecap:butt;stroke-linejoin:miter;stroke-miterlimit:4;stroke-dasharray:0.489472, 0.978945;stroke-dashoffset:0;stroke-opacity:1;marker-start:url(#marker2568);marker-end:url(#marker2302)"
       d="m 84.666667,42.333333 h 30.427083 v 0"
       id="path1278-4-8" />
    <text
       xml:space="preserve"
       style="font-size:4.23333px;line-height:1.25;font-family:sans-serif;letter-spacing:0px;stroke-width:0.264583"
       x="90.774384"
       y="39.952076"
       id="text1282-9-9"><tspan
         sodipodi:role="line"
         x="90.774384"
         y="39.952076"
         style="stroke-width:0.264583"
         id="tspan2254">Class 2</tspan></text>
  </g>
</svg>
